<?xml version="1.0" encoding="UTF-8" standalone="no"?>
<svg
   xmlns:dc="http://purl.org/dc/elements/1.1/"
   xmlns:cc="http://creativecommons.org/ns#"
   xmlns:rdf="http://www.w3.org/1999/02/22-rdf-syntax-ns#"
   xmlns:svg="http://www.w3.org/2000/svg"
   xmlns="http://www.w3.org/2000/svg"
   xmlns:sodipodi="http://sodipodi.sourceforge.net/DTD/sodipodi-0.dtd"
   xmlns:inkscape="http://www.inkscape.org/namespaces/inkscape"
   height="32px"
   id="Layer_1"
   style="enable-background:new 0 0 32 32;"
   version="1.1"
   viewBox="0 0 32 32"
   width="32px"
   xml:space="preserve"
   inkscape:version="0.48.4 r9939"
   sodipodi:docname="menu_button.svg"><metadata
     id="metadata9"><rdf:RDF><cc:Work
         rdf:about=""><dc:format>image/svg+xml</dc:format><dc:type
           rdf:resource="http://purl.org/dc/dcmitype/StillImage" /></cc:Work></rdf:RDF></metadata><defs
     id="defs7" /><sodipodi:namedview
     pagecolor="#ffffff"
     bordercolor="#666666"
     borderopacity="1"
     objecttolerance="10"
     gridtolerance="10"
     guidetolerance="10"
     inkscape:pageopacity="0"
     inkscape:pageshadow="2"
     inkscape:window-width="1920"
     inkscape:window-height="1056"
     id="namedview5"
     showgrid="false"
     inkscape:zoom="20.85965"
     inkscape:cx="22.237677"
     inkscape:cy="13.91678"
     inkscape:window-x="1920"
     inkscape:window-y="24"
     inkscape:window-maximized="1"
     inkscape:current-layer="Layer_1" /><path
     d="M 2.2741801,9.1370901 H 29.72582 c 1.262776,0 2.287637,-1.0248613 2.287637,-2.2876367 0,-1.2627755 -1.024861,-2.2876366 -2.287637,-2.2876366 H 2.2741801 c -1.2627755,0 -2.2876367,1.0248611 -2.2876367,2.2876366 0,1.2627754 1.0248612,2.2876367 2.2876367,2.2876367 z M 29.72582,13.712363 H 2.2741801 c -1.2627755,0 -2.2876367,1.024861 -2.2876367,2.287637 0,1.262776 1.0248612,2.287637 2.2876367,2.287637 H 29.72582 c 1.262776,0 2.287637,-1.024861 2.287637,-2.287637 0,-1.262776 -1.024861,-2.287637 -2.287637,-2.287637 z m 0,9.150547 H 2.2741801 c -1.2627755,0 -2.2876367,1.024861 -2.2876367,2.287637 0,1.262775 1.0248612,2.287637 2.2876367,2.287637 H 29.72582 c 1.262776,0 2.287637,-1.024862 2.287637,-2.287637 0,-1.262776 -1.024861,-2.287637 -2.287637,-2.287637 z"
     id="path3"
     inkscape:connector-curvature="0" /></svg>