<?xml version="1.0" encoding="UTF-8" standalone="no"?>
<svg version="1.1" xmlns="http://www.w3.org/2000/svg" xmlns:xlink="http://www.w3.org/1999/xlink" width="100" height="100">
	<g id="dp_dp001">
		<path id="dp_path002" fill="black" fill-rule="evenodd" fill-opacity="0.25098" d="M 64.612,27.0213 L 99.9987,62.14 L 99.9987,99.988 L 46.632,99.9987 L 23.412,76.7667 L 75.0213,76.7667 L 77.1613,74.3373 L 60.62,44.8413 L 60.62,36.62 L 63.2827,35.8293 Z "/>
		<path id="dp_path003" fill="none" fill-rule="evenodd" stroke="white" stroke-width="2.66667" stroke-linejoin="round" stroke-linecap="round" d="M 36.5973,30.2227 C 36.5973,28.32 38.1453,26.7787 40.0547,26.7787 L 61.0787,26.7787 C 62.9893,26.7787 64.536,28.32 64.536,30.2227 L 64.536,33.176 C 64.536,35.0787 62.9893,36.62 61.0787,36.62 L 60.1293,36.62 L 60.1293,43.98 C 65.728,53.812 76.932,73.476 76.924,73.476 S 77.16,74.1453 77.16,74.5253 C 77.16,75.7253 76.2133,76.7067 75.0227,76.768 L 26.172,76.7693 L 26.1133,76.768 C 24.9213,76.7067 23.976,75.7253 23.976,74.5253 C 23.976,74.1453 24.0693,73.788 24.2373,73.476 S 24.22,73.476 24.212,73.476 L 41.0067,43.98 L 41.0067,36.62 L 40.0547,36.62 C 38.1453,36.62 36.5973,35.0787 36.5973,33.176 Z "/>
		<path id="dp_path004" fill="white" fill-rule="evenodd" d="M 40.484,55.1253 C 38.3253,58.8987 34.008,66.4467 30.7693,72.1067 L 69.176,72.108 L 56.4747,48.1773 L 50.5707,54.308 C 47.032,54.4627 42.6667,54.9053 40.484,55.1253 Z "/>
		<path id="dp_path005" fill="white" fill-rule="evenodd" d="M 52.488,31.536 C 54.4867,31.536 56.1067,33.1507 56.1067,35.1413 C 56.1067,37.132 54.4867,38.7467 52.488,38.7467 C 50.4893,38.7467 48.8693,37.132 48.8693,35.1413 C 48.8693,33.1507 50.4893,31.536 52.488,31.536 Z "/>
		<path id="dp_path006" fill="white" fill-rule="evenodd" d="M 47.8787,43.4387 C 49.0347,43.4387 49.9707,44.372 49.9707,45.524 C 49.9707,46.676 49.0347,47.6093 47.8787,47.6093 C 46.7227,47.6093 45.7867,46.676 45.7867,45.524 C 45.7867,44.372 46.7227,43.4387 47.8787,43.4387 Z "/>
		<path id="dp_path007" fill="white" fill-rule="evenodd" d="M 47.104,17.224 C 48.704,17.224 50,18.516 50,20.1107 C 50,21.7053 48.704,22.9973 47.104,22.9973 C 45.504,22.9973 44.208,21.7053 44.208,20.1107 C 44.208,18.516 45.504,17.224 47.104,17.224 Z "/>
		<path id="dp_path008" fill="white" fill-rule="evenodd" d="M 55.08,11.6107 C 56.1827,11.6107 57.0773,12.5027 57.0773,13.6027 C 57.0773,14.7027 56.1827,15.5947 55.08,15.5947 C 53.9773,15.5947 53.0827,14.7027 53.0827,13.6027 C 53.0827,12.5027 53.9773,11.6107 55.08,11.6107 Z "/>
	</g>
</svg>