<?xml version="1.0" encoding="UTF-8" standalone="no"?>
<svg version="1.1" xmlns="http://www.w3.org/2000/svg" xmlns:xlink="http://www.w3.org/1999/xlink" width="101.053" height="101.053">
	<g id="dp_dp001" transform="matrix(1,0,0,1,-197.312,-191.241)">
		<path id="dp_path002" fill="#ff7b00" fill-rule="evenodd" d="M 247.499,191.56 C 275.113,191.56 297.499,213.921 297.499,241.504 C 297.499,269.087 275.113,291.448 247.499,291.448 C 219.884,291.448 197.499,269.087 197.499,241.504 C 197.499,213.921 219.884,191.56 247.499,191.56 Z "/>
		<path id="dp_path003" fill="#d86d2b" fill-rule="evenodd" d="M 262.111,218.524 L 296.311,252.476 C 291.345,274.836 271.376,291.557 247.497,291.559 C 246.367,291.559 245.245,291.52 244.135,291.447 L 220.911,268.269 L 272.52,268.269 L 274.66,265.84 L 258.119,236.344 L 258.119,228.123 L 260.781,227.332 Z "/>
		<path id="dp_path004" fill="none" fill-rule="evenodd" stroke="white" stroke-width="2.66667" stroke-linejoin="round" stroke-linecap="round" d="M 234.096,221.725 C 234.096,219.823 235.644,218.281 237.553,218.281 L 258.577,218.281 C 260.488,218.281 262.035,219.823 262.035,221.725 L 262.035,224.679 C 262.035,226.581 260.488,228.123 258.577,228.123 L 257.628,228.123 L 257.628,235.483 C 263.227,245.315 274.431,264.979 274.423,264.979 S 274.659,265.648 274.659,266.028 C 274.659,267.228 273.712,268.209 272.521,268.271 L 223.671,268.272 L 223.612,268.271 C 222.42,268.209 221.475,267.228 221.475,266.028 C 221.475,265.648 221.568,265.291 221.736,264.979 S 221.719,264.979 221.711,264.979 L 238.505,235.483 L 238.505,228.123 L 237.553,228.123 C 235.644,228.123 234.096,226.581 234.096,224.679 Z "/>
		<path id="dp_path005" fill="white" fill-rule="evenodd" d="M 237.983,246.628 C 235.824,250.401 231.507,257.949 228.268,263.609 L 266.675,263.611 L 253.973,239.68 L 248.069,245.811 C 244.531,245.965 240.165,246.408 237.983,246.628 Z "/>
		<path id="dp_path006" fill="white" fill-rule="evenodd" d="M 249.987,223.039 C 251.985,223.039 253.605,224.653 253.605,226.644 C 253.605,228.635 251.985,230.249 249.987,230.249 C 247.988,230.249 246.368,228.635 246.368,226.644 C 246.368,224.653 247.988,223.039 249.987,223.039 Z "/>
		<path id="dp_path007" fill="white" fill-rule="evenodd" d="M 245.377,234.941 C 246.533,234.941 247.469,235.875 247.469,237.027 C 247.469,238.179 246.533,239.112 245.377,239.112 C 244.221,239.112 243.285,238.179 243.285,237.027 C 243.285,235.875 244.221,234.941 245.377,234.941 Z "/>
		<path id="dp_path008" fill="white" fill-rule="evenodd" d="M 244.603,208.727 C 246.203,208.727 247.499,210.019 247.499,211.613 C 247.499,213.208 246.203,214.5 244.603,214.5 C 243.003,214.5 241.707,213.208 241.707,211.613 C 241.707,210.019 243.003,208.727 244.603,208.727 Z "/>
		<path id="dp_path009" fill="white" fill-rule="evenodd" d="M 252.579,203.113 C 253.681,203.113 254.576,204.005 254.576,205.105 C 254.576,206.205 253.681,207.097 252.579,207.097 C 251.476,207.097 250.581,206.205 250.581,205.105 C 250.581,204.005 251.476,203.113 252.579,203.113 Z "/>
	</g>
</svg>