<?xml version="1.0" encoding="UTF-8" standalone="no"?>
<svg version="1.1" xmlns="http://www.w3.org/2000/svg" xmlns:xlink="http://www.w3.org/1999/xlink" width="101.053" height="101.053">
	<g id="dp_dp001" transform="matrix(1,0,0,1,-200.348,-361.233)">
		<path id="dp_path002" fill="#ff7b00" fill-rule="evenodd" d="M 250.527,361.433 C 278.141,361.433 300.527,383.795 300.527,411.377 C 300.527,438.96 278.141,461.321 250.527,461.321 C 222.912,461.321 200.527,438.96 200.527,411.377 C 200.527,383.795 222.912,361.433 250.527,361.433 Z "/>
		<path id="dp_path003" fill="white" fill-rule="evenodd" d="M 237.013,385.032 C 237.013,384.597 237.367,384.244 237.801,384.244 L 262.179,384.244 C 262.613,384.244 262.967,384.597 262.967,385.032 L 262.967,389.76 C 262.967,390.195 262.613,390.548 262.179,390.548 L 237.801,390.548 C 237.367,390.548 237.013,390.195 237.013,389.76 Z "/>
		<path id="dp_path004" fill="white" fill-rule="evenodd" d="M 231.528,394.817 C 231.528,394.413 231.855,394.087 232.259,394.087 L 268.032,394.087 C 268.436,394.087 268.763,394.413 268.763,394.817 L 268.763,407.963 C 268.763,408.367 268.436,408.693 268.032,408.693 L 232.259,408.693 C 231.855,408.693 231.528,408.367 231.528,407.963 Z "/>
		<path id="dp_path005" fill="white" fill-rule="evenodd" d="M 231.527,432.229 C 231.527,431.796 231.877,431.445 232.311,431.445 L 267.977,431.445 C 268.411,431.445 268.761,431.796 268.761,432.229 L 268.761,436.936 C 268.761,437.369 268.411,437.72 267.977,437.72 L 232.311,437.72 C 231.877,437.72 231.527,437.369 231.527,436.936 Z "/>
		<path id="dp_path006" fill="white" fill-rule="evenodd" d="M 231.527,422.708 C 231.527,422.289 231.865,421.951 232.284,421.951 L 249.032,421.951 C 249.451,421.951 249.789,422.289 249.789,422.708 L 249.789,427.256 C 249.789,427.675 249.451,428.013 249.032,428.013 L 232.284,428.013 C 231.865,428.013 231.527,427.675 231.527,427.256 Z "/>
		<path id="dp_path007" fill="white" fill-rule="evenodd" d="M 231.527,412.92 C 231.527,412.501 231.865,412.163 232.284,412.163 L 249.032,412.163 C 249.451,412.163 249.789,412.501 249.789,412.92 L 249.789,417.468 C 249.789,417.887 249.451,418.225 249.032,418.225 L 232.284,418.225 C 231.865,418.225 231.527,417.887 231.527,417.468 Z "/>
		<path id="dp_path008" fill="#d86d2b" fill-rule="evenodd" d="M 273.387,379.273 L 300.123,405.12 L 300.124,405.127 C 300.388,407.208 300.525,409.332 300.525,411.488 C 300.525,439.071 278.139,461.432 250.525,461.432 C 248.352,461.432 246.212,461.292 244.113,461.025 L 226.817,442.651 L 272.349,441.843 Z "/>
		<path id="dp_path009" fill="white" fill-rule="evenodd" d="M 253.465,413.049 C 253.465,412.627 253.808,412.284 254.231,412.284 L 267.993,412.284 C 268.416,412.284 268.759,412.627 268.759,413.049 L 268.759,427.139 C 268.759,427.561 268.416,427.904 267.993,427.904 L 254.231,427.904 C 253.808,427.904 253.465,427.561 253.465,427.139 Z "/>
		<path id="dp_path010" fill="none" fill-rule="evenodd" stroke="white" stroke-width="2.66667" d="M 226.843,382.488 C 226.843,380.815 228.199,379.459 229.872,379.459 L 270.415,379.459 C 272.088,379.459 273.444,380.815 273.444,382.488 L 273.444,439.511 C 273.444,441.184 272.088,442.54 270.415,442.54 L 229.872,442.54 C 228.199,442.54 226.843,441.184 226.843,439.511 Z "/>
		<path id="dp_path011" fill="white" fill-rule="evenodd" d="M 232.335,376.857 C 232.335,375.797 233.193,374.939 234.253,374.939 L 234.252,374.939 C 235.312,374.939 236.171,375.797 236.171,376.857 L 236.171,378.495 C 236.171,379.555 235.312,380.413 234.252,380.413 L 234.253,380.413 C 233.193,380.413 232.335,379.555 232.335,378.495 Z "/>
		<path id="dp_path012" fill="white" fill-rule="evenodd" d="M 238.684,376.857 C 238.684,375.797 239.543,374.939 240.603,374.939 L 240.601,374.939 C 241.661,374.939 242.52,375.797 242.52,376.857 L 242.52,378.495 C 242.52,379.555 241.661,380.413 240.601,380.413 L 240.603,380.413 C 239.543,380.413 238.684,379.555 238.684,378.495 Z "/>
		<path id="dp_path013" fill="white" fill-rule="evenodd" d="M 245.032,376.857 C 245.032,375.797 245.891,374.939 246.951,374.939 L 246.949,374.939 C 248.009,374.939 248.868,375.797 248.868,376.857 L 248.868,378.495 C 248.868,379.555 248.009,380.413 246.949,380.413 L 246.951,380.413 C 245.891,380.413 245.032,379.555 245.032,378.495 Z "/>
		<path id="dp_path014" fill="white" fill-rule="evenodd" d="M 251.381,376.857 C 251.381,375.797 252.24,374.939 253.3,374.939 L 253.299,374.939 C 254.359,374.939 255.217,375.797 255.217,376.857 L 255.217,378.495 C 255.217,379.555 254.359,380.413 253.299,380.413 L 253.3,380.413 C 252.24,380.413 251.381,379.555 251.381,378.495 Z "/>
		<path id="dp_path015" fill="white" fill-rule="evenodd" d="M 264.079,376.857 C 264.079,375.797 264.937,374.939 265.997,374.939 L 265.996,374.939 C 267.056,374.939 267.915,375.797 267.915,376.857 L 267.915,378.495 C 267.915,379.555 267.056,380.413 265.996,380.413 L 265.997,380.413 C 264.937,380.413 264.079,379.555 264.079,378.495 Z "/>
		<path id="dp_path016" fill="white" fill-rule="evenodd" d="M 257.729,376.857 C 257.729,375.797 258.588,374.939 259.648,374.939 L 259.647,374.939 C 260.707,374.939 261.565,375.797 261.565,376.857 L 261.565,378.495 C 261.565,379.555 260.707,380.413 259.647,380.413 L 259.648,380.413 C 258.588,380.413 257.729,379.555 257.729,378.495 Z "/>
	</g>
</svg>