<?xml version="1.0" encoding="UTF-8" standalone="no"?>
<svg version="1.1" xmlns="http://www.w3.org/2000/svg" xmlns:xlink="http://www.w3.org/1999/xlink" width="100" height="100">
	<g id="dp_dp001">
		<path id="dp_path002" fill="white" fill-rule="evenodd" d="M 36.4867,23.6573 C 36.4867,23.2227 36.84,22.8693 37.2747,22.8693 L 61.652,22.8693 C 62.0867,22.8693 62.44,23.2227 62.44,23.6573 L 62.44,28.3853 C 62.44,28.82 62.0867,29.1733 61.652,29.1733 L 37.2747,29.1733 C 36.84,29.1733 36.4867,28.82 36.4867,28.3853 Z "/>
		<path id="dp_path003" fill="white" fill-rule="evenodd" d="M 31.0013,33.4427 C 31.0013,33.0387 31.328,32.712 31.732,32.712 L 67.5053,32.712 C 67.9093,32.712 68.236,33.0387 68.236,33.4427 L 68.236,46.588 C 68.236,46.992 67.9093,47.3187 67.5053,47.3187 L 31.732,47.3187 C 31.328,47.3187 31.0013,46.992 31.0013,46.588 Z "/>
		<path id="dp_path004" fill="white" fill-rule="evenodd" d="M 31,70.8547 C 31,70.4213 31.3507,70.0707 31.784,70.0707 L 67.4507,70.0707 C 67.884,70.0707 68.2347,70.4213 68.2347,70.8547 L 68.2347,75.5613 C 68.2347,75.9947 67.884,76.3453 67.4507,76.3453 L 31.784,76.3453 C 31.3507,76.3453 31,75.9947 31,75.5613 Z "/>
		<path id="dp_path005" fill="white" fill-rule="evenodd" d="M 31,61.3333 C 31,60.9147 31.3387,60.576 31.7573,60.576 L 48.5053,60.576 C 48.924,60.576 49.2627,60.9147 49.2627,61.3333 L 49.2627,65.8813 C 49.2627,66.3 48.924,66.6387 48.5053,66.6387 L 31.7573,66.6387 C 31.3387,66.6387 31,66.3 31,65.8813 Z "/>
		<path id="dp_path006" fill="white" fill-rule="evenodd" d="M 31,51.5453 C 31,51.1267 31.3387,50.788 31.7573,50.788 L 48.5053,50.788 C 48.924,50.788 49.2627,51.1267 49.2627,51.5453 L 49.2627,56.0933 C 49.2627,56.512 48.924,56.8507 48.5053,56.8507 L 31.7573,56.8507 C 31.3387,56.8507 31,56.512 31,56.0933 Z "/>
		<path id="dp_path007" fill="black" fill-rule="evenodd" fill-opacity="0.25098" d="M 72.86,17.8987 L 99.9987,44.1413 L 99.9987,100 L 43.9333,100 L 26.2907,81.276 L 71.8227,80.468 Z "/>
		<path id="dp_path008" fill="white" fill-rule="evenodd" d="M 52.9387,51.6747 C 52.9387,51.252 53.2813,50.9093 53.704,50.9093 L 67.4667,50.9093 C 67.8893,50.9093 68.232,51.252 68.232,51.6747 L 68.232,65.764 C 68.232,66.1867 67.8893,66.5293 67.4667,66.5293 L 53.704,66.5293 C 53.2813,66.5293 52.9387,66.1867 52.9387,65.764 Z "/>
		<path id="dp_path009" fill="none" fill-rule="evenodd" stroke="white" stroke-width="2.66667" d="M 26.316,21.1133 C 26.316,19.44 27.672,18.084 29.3453,18.084 L 69.888,18.084 C 71.5613,18.084 72.9173,19.44 72.9173,21.1133 L 72.9173,78.136 C 72.9173,79.8093 71.5613,81.1653 69.888,81.1653 L 29.3453,81.1653 C 27.672,81.1653 26.316,79.8093 26.316,78.136 Z "/>
		<path id="dp_path010" fill="white" fill-rule="evenodd" d="M 31.808,15.4827 C 31.808,14.4227 32.6667,13.564 33.7267,13.564 L 33.7253,13.564 C 34.7853,13.564 35.644,14.4227 35.644,15.4827 L 35.644,17.12 C 35.644,18.18 34.7853,19.0387 33.7253,19.0387 L 33.7267,19.0387 C 32.6667,19.0387 31.808,18.18 31.808,17.12 Z "/>
		<path id="dp_path011" fill="white" fill-rule="evenodd" d="M 38.1573,15.4827 C 38.1573,14.4227 39.016,13.564 40.076,13.564 L 40.0747,13.564 C 41.1347,13.564 41.9933,14.4227 41.9933,15.4827 L 41.9933,17.12 C 41.9933,18.18 41.1347,19.0387 40.0747,19.0387 L 40.076,19.0387 C 39.016,19.0387 38.1573,18.18 38.1573,17.12 Z "/>
		<path id="dp_path012" fill="white" fill-rule="evenodd" d="M 44.5053,15.4827 C 44.5053,14.4227 45.364,13.564 46.424,13.564 L 46.4227,13.564 C 47.4827,13.564 48.3413,14.4227 48.3413,15.4827 L 48.3413,17.12 C 48.3413,18.18 47.4827,19.0387 46.4227,19.0387 L 46.424,19.0387 C 45.364,19.0387 44.5053,18.18 44.5053,17.12 Z "/>
		<path id="dp_path013" fill="white" fill-rule="evenodd" d="M 50.8547,15.4827 C 50.8547,14.4227 51.7133,13.564 52.7733,13.564 L 52.772,13.564 C 53.832,13.564 54.6907,14.4227 54.6907,15.4827 L 54.6907,17.12 C 54.6907,18.18 53.832,19.0387 52.772,19.0387 L 52.7733,19.0387 C 51.7133,19.0387 50.8547,18.18 50.8547,17.12 Z "/>
		<path id="dp_path014" fill="white" fill-rule="evenodd" d="M 63.552,15.4827 C 63.552,14.4227 64.4107,13.564 65.4707,13.564 L 65.4693,13.564 C 66.5293,13.564 67.388,14.4227 67.388,15.4827 L 67.388,17.12 C 67.388,18.18 66.5293,19.0387 65.4693,19.0387 L 65.4707,19.0387 C 64.4107,19.0387 63.552,18.18 63.552,17.12 Z "/>
		<path id="dp_path015" fill="white" fill-rule="evenodd" d="M 57.2027,15.4827 C 57.2027,14.4227 58.0613,13.564 59.1213,13.564 L 59.12,13.564 C 60.18,13.564 61.0387,14.4227 61.0387,15.4827 L 61.0387,17.12 C 61.0387,18.18 60.18,19.0387 59.12,19.0387 L 59.1213,19.0387 C 58.0613,19.0387 57.2027,18.18 57.2027,17.12 Z "/>
	</g>
</svg>