<?xml version="1.0" encoding="UTF-8" standalone="no"?>
<svg version="1.1" xmlns="http://www.w3.org/2000/svg" xmlns:xlink="http://www.w3.org/1999/xlink" width="101" height="100">
	<g id="dp_dp001" transform="matrix(1,0,0,1,-287.384,69.092)">
		<path id="dp_path002" fill="#4f9652" fill-rule="evenodd" d="M 337.872,-69.3693 C 365.487,-69.3693 387.872,-47.0053 387.872,-19.4187 C 387.872,8.168 365.487,30.532 337.872,30.532 C 310.257,30.532 287.872,8.168 287.872,-19.4187 C 287.872,-47.0053 310.257,-69.3693 337.872,-69.3693 Z "/>
		<path id="dp_path003" fill="#3f7a45" fill-rule="evenodd" d="M 303.348,-4.976 L 338.983,30.6293 C 364.172,30.0787 384.771,10.9187 387.551,-13.6347 L 370.501,-30.6293 Z "/>
		<path id="dp_path004" fill="white" fill-rule="evenodd" d="M 314.139,-29.0587 C 322.129,-29.0587 328.607,-22.588 328.607,-14.6053 C 328.607,-6.62267 322.129,-0.152 314.139,-0.152 C 306.148,-0.152 299.671,-6.62267 299.671,-14.6053 C 299.671,-22.588 306.148,-29.0587 314.139,-29.0587 Z "/>
		<path id="dp_path005" fill="white" fill-rule="evenodd" d="M 358.489,-35.2827 C 368.199,-35.2827 376.071,-27.4187 376.071,-17.7173 C 376.071,-8.016 368.199,-0.152 358.489,-0.152 C 348.78,-0.152 340.908,-8.016 340.908,-17.7173 C 340.908,-27.4187 348.78,-35.2827 358.489,-35.2827 Z "/>
		<path id="dp_path006" fill="white" fill-rule="evenodd" d="M 335.156,-46.6547 C 346.764,-46.6547 356.175,-37.2533 356.175,-25.656 C 356.175,-14.0587 346.764,-4.65733 335.156,-4.65733 C 323.548,-4.65733 314.137,-14.0587 314.137,-25.656 C 314.137,-37.2533 323.548,-46.6547 335.156,-46.6547 Z "/>
		<path id="dp_path007" fill="white" fill-rule="evenodd" d="M 314.139,-24.0307 L 358.491,-24.0307 L 358.491,-0.150667 L 314.139,-0.150667 Z "/>
		<path id="dp_path008" fill="none" fill-rule="evenodd" stroke="#609e62" stroke-width="3.33333" stroke-linejoin="round" stroke-linecap="round" d="M 327.215,-26.6293 L 318.535,-17.284 L 327.213,-7.81467"/>
		<path id="dp_path009" fill="none" fill-rule="evenodd" stroke="#609e62" stroke-width="3.33333" stroke-linejoin="round" stroke-linecap="round" d="M 348.528,-7.81467 L 357.207,-17.16 L 348.528,-26.6293"/>
		<path id="dp_path010" fill="none" fill-rule="evenodd" stroke="#609e62" stroke-width="3.33333" stroke-linejoin="round" stroke-linecap="round" d="M 342.452,-26.6467 L 333.291,-7.79733"/>
	</g>
</svg>