<?xml version="1.0" encoding="UTF-8" standalone="no"?>
<svg version="1.1" xmlns="http://www.w3.org/2000/svg" xmlns:xlink="http://www.w3.org/1999/xlink" width="100" height="100">
	<g id="dp_dp001">
		<path id="dp_path002" fill="black" fill-rule="evenodd" fill-opacity="0.25098" d="M 15.4773,64.444 L 51.14,100 L 100,100 L 100,56.1013 L 82.6307,38.7907 L 85.1973,55.6507 L 73.1173,65.0907 Z "/>
		<path id="dp_path003" fill="white" fill-rule="evenodd" d="M 58.9373,42.8307 C 58.9,43.2867 59.0507,43.756 59.3893,44.1173 L 67.0413,52.2627 L 59.388,60.4093 C 58.7507,61.0867 58.7827,62.152 59.4613,62.7907 C 60.14,63.428 61.2067,63.3947 61.844,62.7173 L 70.544,53.4547 C 70.8507,53.1267 71.0027,52.708 71.0013,52.292 C 71,52.2867 71,52.2827 71.0013,52.2787 C 71.0147,51.8467 70.8627,51.4107 70.5453,51.072 L 61.8453,41.8093 C 61.208,41.132 60.1413,41.0987 59.4627,41.736 L 59.464,41.7347 C 59.144,42.0347 58.9667,42.4267 58.9373,42.8307 Z M 45.4853,63.1267 C 45.2387,63.124 44.9907,63.0693 44.756,62.9547 L 44.7573,62.9547 C 43.9213,62.5453 43.576,61.536 43.9853,60.7 L 53.0667,42.1707 C 53.476,41.3347 54.4867,40.9893 55.3213,41.3987 C 56.156,41.808 56.5013,42.8173 56.092,43.6533 L 47.0107,62.1827 C 46.716,62.7827 46.112,63.1307 45.4853,63.1267 Z M 39.4027,63.184 C 38.944,63.1907 38.484,63.012 38.1453,62.6533 L 29.4453,53.3907 C 29.1387,53.0627 28.9867,52.644 28.988,52.228 C 28.9893,52.2227 28.9893,52.2187 28.988,52.2147 C 28.9747,51.7827 29.1267,51.3467 29.444,51.008 L 38.144,41.7453 C 38.7813,41.068 39.848,41.0347 40.5267,41.672 L 40.5253,41.6707 C 41.2053,42.3107 41.236,43.3747 40.6,44.0533 L 32.948,52.1987 L 40.6013,60.3453 C 41.2387,61.0227 41.2067,62.088 40.528,62.7267 C 40.2093,63.024 39.8067,63.176 39.4027,63.184 Z M 26.268,40.3613 C 26.3587,40.3613 26.4493,40.3613 26.5413,40.3653 C 28.1653,30.384 36.8347,22.764 47.2853,22.7653 C 55.6387,22.7653 62.8533,27.6333 66.2427,34.6867 C 67.6413,34.3267 69.1067,34.1373 70.6187,34.1373 C 80.328,34.1373 88.2,42.0013 88.2,51.7027 C 88.2,61.4027 80.328,69.2667 70.62,69.268 L 70.62,69.2693 L 26.268,69.2693 L 26.268,69.268 C 18.2773,69.268 11.8,62.7973 11.8,54.8147 C 11.8,46.832 18.2773,40.3613 26.268,40.3613 Z "/>
	</g>
</svg>